<svg width="15" height="21" viewBox="0 0 15 21" fill="none" xmlns="http://www.w3.org/2000/svg">
<path d="M7.5 17.2188C5.12153 15.4306 3.35503 13.7205 2.20052 12.0886C1.04601 10.4566 0.46875 8.85074 0.46875 7.27087C0.46875 6.09032 0.681424 5.05299 1.10677 4.1589C1.53212 3.2648 2.08333 2.51393 2.76042 1.90629C3.4375 1.29865 4.19271 0.842923 5.02604 0.539103C5.85938 0.235284 6.68403 0.083374 7.5 0.083374C8.31597 0.083374 9.14062 0.235284 9.97396 0.539103C10.8073 0.842923 11.5625 1.29865 12.2396 1.90629C12.9167 2.51393 13.4679 3.2648 13.8932 4.1589C14.3186 5.05299 14.5312 6.09032 14.5312 7.27087C14.5312 8.85074 13.954 10.4566 12.7995 12.0886C11.645 13.7205 9.87847 15.4306 7.5 17.2188ZM7.5 8.93754C8.00347 8.93754 8.43316 8.75959 8.78906 8.40369C9.14497 8.04778 9.32292 7.6181 9.32292 7.11462C9.32292 6.61115 9.14497 6.18146 8.78906 5.82556C8.43316 5.46966 8.00347 5.29171 7.5 5.29171C6.99653 5.29171 6.56684 5.46966 6.21094 5.82556C5.85503 6.18146 5.67708 6.61115 5.67708 7.11462C5.67708 7.6181 5.85503 8.04778 6.21094 8.40369C6.56684 8.75959 6.99653 8.93754 7.5 8.93754ZM0.46875 20.9167V19.3542H14.5312V20.9167H0.46875Z" fill="black"/>
</svg>
