<svg width="19" height="19" viewBox="0 0 19 19" fill="none" xmlns="http://www.w3.org/2000/svg">
<path d="M17.2344 9.31767C17.1476 7.21697 16.3707 5.43312 14.9036 3.96611C13.4366 2.49909 11.6528 1.72218 9.55208 1.63538V0.072876C10.8194 0.107598 12.0043 0.372355 13.1068 0.867147C14.2092 1.36194 15.1771 2.026 16.0104 2.85933C16.8438 3.69267 17.5078 4.66055 18.0026 5.76298C18.4974 6.86541 18.7622 8.05031 18.7969 9.31767H17.2344ZM12.8073 9.31767C12.7205 8.44961 12.3733 7.71611 11.7656 7.11715C11.158 6.51819 10.4201 6.17531 9.55208 6.0885V4.526C10.8542 4.61281 11.9609 5.1076 12.8724 6.01038C13.7839 6.91315 14.283 8.01558 14.3698 9.31767H12.8073ZM17.7031 18.875C15.5851 18.875 13.48 18.3541 11.388 17.3125C9.29601 16.2708 7.41667 14.9166 5.75 13.25C4.08333 11.5833 2.72917 9.70395 1.6875 7.61194C0.645833 5.51993 0.125 3.41489 0.125 1.29683C0.125 0.966973 0.237847 0.689195 0.463542 0.463501C0.689236 0.237807 0.967014 0.124959 1.29688 0.124959H4.94271C5.18576 0.124959 5.39844 0.207425 5.58073 0.372355C5.76302 0.537286 5.88021 0.75864 5.93229 1.03642L6.63542 4.31767C6.67014 4.56072 6.6658 4.78208 6.6224 4.98173C6.57899 5.18138 6.48785 5.35065 6.34896 5.48954L3.74479 8.11975C4.71701 9.73433 5.80642 11.1406 7.01302 12.3385C8.21962 13.5364 9.58681 14.552 11.1146 15.3854L13.5885 12.8333C13.7622 12.6423 13.9618 12.5078 14.1875 12.4296C14.4132 12.3515 14.6389 12.3385 14.8646 12.3906L17.9635 13.0677C18.224 13.1198 18.441 13.25 18.6146 13.4583C18.7882 13.6666 18.875 13.9097 18.875 14.1875V17.7031C18.875 18.0329 18.7622 18.3107 18.5365 18.5364C18.3108 18.7621 18.033 18.875 17.7031 18.875Z" fill="black"/>
</svg>
